<svg xmlns="http://www.w3.org/2000/svg" xmlns:xlink="http://www.w3.org/1999/xlink" version="1.1" width="256" height="256" viewBox="0 0 256 256" xml:space="preserve">

<defs>
</defs>
<g style="stroke: none; stroke-width: 0; stroke-dasharray: none; stroke-linecap: butt; stroke-linejoin: miter; stroke-miterlimit: 10; fill: none; fill-rule: nonzero; opacity: 1;" transform="translate(1.4065934065934016 1.4065934065934016) scale(2.81 2.81)" >
	<path d="M 85.033 90 C 87.776 90 90 87.776 90 85.033 V 4.967 C 90 2.223 87.776 0 85.033 0 H 4.967 C 2.223 0 0 2.223 0 4.967 v 80.066 C 0 87.776 2.223 90 4.967 90 H 85.033 z" style="stroke: none; stroke-width: 1; stroke-dasharray: none; stroke-linecap: butt; stroke-linejoin: miter; stroke-miterlimit: 10; fill: rgb(60,90,153); fill-rule: nonzero; opacity: 1;" transform=" matrix(1 0 0 1 0 0) " stroke-linecap="round" />
	<path d="M 50.916 83.204 V 48.351 h 11.699 l 1.752 -13.583 h -13.45 v -8.672 c 0 -3.933 1.092 -6.612 6.731 -6.612 l 7.193 -0.003 V 7.332 c -1.244 -0.166 -5.513 -0.535 -10.481 -0.535 c -10.37 0 -17.47 6.33 -17.47 17.954 v 10.017 H 25.16 v 13.583 h 11.729 v 34.853 H 50.916 z" style="stroke: none; stroke-width: 1; stroke-dasharray: none; stroke-linecap: butt; stroke-linejoin: miter; stroke-miterlimit: 10; fill: rgb(255,255,255); fill-rule: nonzero; opacity: 1;" transform=" matrix(1 0 0 1 0 0) " stroke-linecap="round" />
</g>
</svg>