<svg xmlns="http://www.w3.org/2000/svg" xmlns:xlink="http://www.w3.org/1999/xlink" version="1.1" width="256" height="256" viewBox="0 0 256 256" xml:space="preserve">

<defs>
</defs>
<g style="stroke: none; stroke-width: 0; stroke-dasharray: none; stroke-linecap: butt; stroke-linejoin: miter; stroke-miterlimit: 10; fill: none; fill-rule: nonzero; opacity: 1;" transform="translate(1.4065934065934016 1.4065934065934016) scale(2.81 2.81)" >
	<path d="M 2.571 30 l 84.859 0 C 81.254 12.534 64.611 0.015 45.034 0 l -0.068 0 C 25.389 0.015 8.745 12.534 2.571 30 z" style="stroke: none; stroke-width: 1; stroke-dasharray: none; stroke-linecap: butt; stroke-linejoin: miter; stroke-miterlimit: 10; fill: rgb(255,153,51); fill-rule: nonzero; opacity: 1;" transform=" matrix(1 0 0 1 0 0) " stroke-linecap="round" />
	<path d="M 87.429 60 L 2.571 60 C 8.75 77.476 25.408 90 45 90 S 81.25 77.476 87.429 60 z" style="stroke: none; stroke-width: 1; stroke-dasharray: none; stroke-linecap: butt; stroke-linejoin: miter; stroke-miterlimit: 10; fill: rgb(18,136,7); fill-rule: nonzero; opacity: 1;" transform=" matrix(1 0 0 1 0 0) " stroke-linecap="round" />
	<path d="M 87.429 60 C 89.088 55.307 90 50.261 90 45 c 0 -5.261 -0.911 -10.307 -2.571 -15 L 2.571 30 C 0.911 34.693 0 39.739 0 45 c 0 5.261 0.912 10.308 2.571 15 L 87.429 60 z" style="stroke: none; stroke-width: 1; stroke-dasharray: none; stroke-linecap: butt; stroke-linejoin: miter; stroke-miterlimit: 10; fill: rgb(243,244,245); fill-rule: nonzero; opacity: 1;" transform=" matrix(1 0 0 1 0 0) " stroke-linecap="round" />
	<path d="M 45 32.5 c -6.904 0 -12.5 5.596 -12.5 12.5 c 0 6.904 5.596 12.5 12.5 12.5 c 6.904 0 12.5 -5.596 12.5 -12.5 C 57.5 38.096 51.904 32.5 45 32.5 z M 54.885 40.315 c -0.271 0.12 -0.399 0.433 -0.285 0.709 c 0.114 0.275 0.426 0.407 0.702 0.3 c 0.099 0.277 0.186 0.559 0.263 0.846 l -6.436 1.336 l -2.048 0.821 c -0.036 -0.111 -0.081 -0.218 -0.134 -0.321 l 2.03 -0.868 l 5.495 -3.605 C 54.619 39.787 54.758 40.048 54.885 40.315 z M 51.217 36.003 c -0.173 0.239 -0.127 0.573 0.109 0.754 c 0.235 0.181 0.57 0.139 0.756 -0.089 c 0.225 0.191 0.444 0.39 0.653 0.599 c 0.209 0.209 0.407 0.428 0.599 0.653 c -0.228 0.186 -0.27 0.52 -0.089 0.756 c 0.181 0.236 0.515 0.282 0.754 0.109 c 0.168 0.242 0.325 0.492 0.473 0.748 l -5.87 2.956 l -1.767 1.324 c -0.063 -0.098 -0.135 -0.189 -0.213 -0.275 l 1.737 -1.365 l 4.375 -4.906 l -4.906 4.375 l -1.365 1.737 c -0.086 -0.078 -0.178 -0.149 -0.275 -0.213 l 1.324 -1.767 l 2.956 -5.87 C 50.724 35.677 50.974 35.835 51.217 36.003 z M 48.976 35.4 c 0.275 0.114 0.589 -0.014 0.709 -0.285 c 0.268 0.127 0.528 0.266 0.783 0.414 l -3.605 5.495 l -0.868 2.03 c -0.103 -0.053 -0.21 -0.098 -0.321 -0.134 l 0.821 -2.048 l 1.336 -6.436 c 0.287 0.076 0.569 0.164 0.846 0.263 C 48.57 34.974 48.701 35.286 48.976 35.4 z M 43.644 34.698 c 0.294 -0.039 0.501 -0.304 0.471 -0.597 c 0.292 -0.023 0.587 -0.039 0.885 -0.039 s 0.593 0.015 0.885 0.039 c -0.03 0.293 0.177 0.558 0.471 0.597 c 0.294 0.039 0.563 -0.165 0.61 -0.456 c 0.292 0.053 0.581 0.118 0.864 0.193 l -2.061 6.242 l -0.313 2.184 c -0.112 -0.024 -0.228 -0.037 -0.345 -0.043 l 0.263 -2.193 L 45 34.063 l -0.375 6.563 l 0.263 2.193 c -0.118 0.006 -0.233 0.019 -0.345 0.043 l -0.313 -2.184 l -2.061 -6.242 c 0.284 -0.075 0.572 -0.14 0.864 -0.193 C 43.08 34.533 43.349 34.737 43.644 34.698 z M 40.315 35.115 c 0.12 0.271 0.434 0.399 0.709 0.285 c 0.275 -0.114 0.407 -0.426 0.3 -0.702 c 0.277 -0.099 0.559 -0.186 0.846 -0.263 l 1.336 6.436 l 0.821 2.048 c -0.111 0.036 -0.218 0.081 -0.321 0.134 l -0.868 -2.03 l -3.605 -5.495 C 39.787 35.381 40.048 35.242 40.315 35.115 z M 36.003 38.783 c 0.239 0.173 0.573 0.127 0.754 -0.109 c 0.181 -0.235 0.139 -0.57 -0.089 -0.756 c 0.191 -0.225 0.39 -0.444 0.599 -0.653 c 0.209 -0.209 0.428 -0.407 0.653 -0.599 c 0.186 0.228 0.52 0.27 0.756 0.089 c 0.236 -0.181 0.282 -0.515 0.109 -0.754 c 0.242 -0.168 0.492 -0.325 0.748 -0.473 l 2.956 5.87 l 1.324 1.767 c -0.098 0.063 -0.189 0.135 -0.275 0.213 l -1.365 -1.737 l -4.906 -4.375 l 4.375 4.906 l 1.737 1.365 c -0.078 0.086 -0.149 0.178 -0.213 0.275 l -1.767 -1.324 l -5.87 -2.956 C 35.677 39.276 35.835 39.026 36.003 38.783 z M 35.118 49.684 c 0.269 -0.12 0.396 -0.433 0.282 -0.707 c -0.114 -0.275 -0.425 -0.406 -0.701 -0.3 c -0.197 -0.551 -0.351 -1.122 -0.458 -1.71 c 0.292 -0.046 0.496 -0.316 0.457 -0.61 c -0.039 -0.294 -0.305 -0.502 -0.599 -0.471 c -0.024 -0.292 -0.037 -0.587 -0.037 -0.885 c 0 -0.298 0.013 -0.593 0.037 -0.885 c 0.294 0.031 0.56 -0.177 0.599 -0.471 c 0.039 -0.295 -0.165 -0.564 -0.457 -0.61 c 0.107 -0.588 0.261 -1.159 0.458 -1.71 c 0.276 0.106 0.587 -0.026 0.701 -0.3 c 0.114 -0.274 -0.013 -0.587 -0.282 -0.707 c 0.127 -0.267 0.264 -0.53 0.411 -0.784 l 5.495 3.605 l 2.03 0.868 c -0.053 0.103 -0.098 0.21 -0.134 0.321 l -2.048 -0.821 l -6.436 -1.336 l 6.242 2.061 l 2.184 0.313 c -0.024 0.112 -0.037 0.228 -0.043 0.345 l -2.193 -0.263 L 34.063 45 l 6.563 0.375 l 2.193 -0.263 c 0.006 0.118 0.019 0.233 0.043 0.345 l -2.184 0.313 l -6.242 2.061 l 6.436 -1.336 l 2.048 -0.821 c 0.036 0.111 0.081 0.218 0.134 0.321 l -2.03 0.868 l -5.495 3.605 C 35.381 50.213 35.245 49.951 35.118 49.684 z M 38.783 53.997 c 0.173 -0.239 0.127 -0.573 -0.109 -0.754 c -0.235 -0.181 -0.57 -0.139 -0.756 0.089 c -0.225 -0.191 -0.444 -0.39 -0.653 -0.599 c -0.209 -0.209 -0.407 -0.428 -0.599 -0.653 c 0.228 -0.186 0.27 -0.52 0.089 -0.756 c -0.181 -0.236 -0.515 -0.282 -0.754 -0.109 c -0.168 -0.242 -0.325 -0.492 -0.473 -0.748 l 5.87 -2.956 l 1.767 -1.324 c 0.063 0.098 0.135 0.189 0.213 0.275 l -1.737 1.365 l -4.375 4.906 l 4.906 -4.375 l 1.365 -1.737 c 0.086 0.078 0.178 0.149 0.275 0.213 l -1.324 1.767 l -2.956 5.87 C 39.276 54.323 39.026 54.165 38.783 53.997 z M 46.356 55.302 c -0.294 0.039 -0.501 0.304 -0.471 0.597 c -0.292 0.023 -0.587 0.039 -0.885 0.039 c -0.298 0 -0.593 -0.015 -0.885 -0.039 c 0.03 -0.293 -0.177 -0.558 -0.471 -0.597 c -0.294 -0.039 -0.563 0.165 -0.61 0.456 c -0.588 -0.107 -1.159 -0.259 -1.71 -0.456 c 0.107 -0.276 -0.025 -0.589 -0.3 -0.702 c -0.275 -0.114 -0.589 0.014 -0.709 0.285 c -0.268 -0.127 -0.528 -0.266 -0.783 -0.414 l 3.605 -5.495 l 0.868 -2.03 c 0.103 0.053 0.21 0.098 0.321 0.134 l -0.821 2.048 l -1.336 6.436 l 2.061 -6.242 l 0.313 -2.184 c 0.112 0.024 0.228 0.037 0.345 0.043 l -0.263 2.193 L 45 55.938 l 0.375 -6.562 l -0.263 -2.193 c 0.118 -0.006 0.233 -0.019 0.345 -0.043 l 0.313 2.184 l 2.061 6.242 c -0.284 0.075 -0.572 0.14 -0.864 0.193 C 46.92 55.467 46.651 55.263 46.356 55.302 z M 49.685 54.885 c -0.12 -0.271 -0.434 -0.399 -0.709 -0.285 c -0.275 0.114 -0.407 0.426 -0.3 0.702 c -0.277 0.099 -0.559 0.186 -0.846 0.263 l -1.336 -6.436 l -0.821 -2.048 c 0.111 -0.036 0.218 -0.081 0.321 -0.134 l 0.868 2.03 l 3.605 5.495 C 50.213 54.619 49.952 54.758 49.685 54.885 z M 53.997 51.217 c -0.239 -0.173 -0.573 -0.127 -0.754 0.109 c -0.181 0.235 -0.139 0.57 0.089 0.756 c -0.191 0.225 -0.39 0.444 -0.599 0.653 c -0.209 0.209 -0.428 0.407 -0.653 0.599 c -0.186 -0.228 -0.52 -0.27 -0.756 -0.089 c -0.236 0.181 -0.282 0.515 -0.109 0.754 c -0.242 0.168 -0.492 0.325 -0.748 0.473 l -2.956 -5.87 l -1.324 -1.767 c 0.098 -0.063 0.189 -0.135 0.275 -0.213 l 1.365 1.737 l 4.906 4.375 l -4.375 -4.906 l -1.737 -1.365 c 0.078 -0.086 0.149 -0.178 0.213 -0.275 l 1.767 1.324 l 5.87 2.956 C 54.323 50.724 54.165 50.974 53.997 51.217 z M 54.6 48.976 c -0.114 0.275 0.014 0.589 0.285 0.709 c -0.127 0.268 -0.266 0.528 -0.414 0.783 l -5.495 -3.605 l -2.03 -0.868 c 0.053 -0.103 0.098 -0.21 0.134 -0.321 l 2.048 0.821 l 6.436 1.336 c -0.076 0.287 -0.164 0.569 -0.263 0.846 C 55.026 48.57 54.714 48.701 54.6 48.976 z M 55.302 46.356 c -0.039 0.294 0.165 0.563 0.456 0.61 c -0.053 0.292 -0.118 0.581 -0.193 0.864 l -6.242 -2.061 l -2.184 -0.313 c 0.024 -0.112 0.037 -0.228 0.043 -0.345 l 2.193 0.263 L 55.938 45 l -6.562 -0.375 l -2.193 0.263 c -0.006 -0.118 -0.019 -0.233 -0.043 -0.345 l 2.184 -0.313 l 6.242 -2.061 c 0.075 0.284 0.14 0.572 0.193 0.864 c -0.291 0.047 -0.495 0.316 -0.456 0.61 c 0.039 0.294 0.304 0.501 0.597 0.471 c 0.023 0.292 0.039 0.587 0.039 0.885 c 0 0.298 -0.015 0.593 -0.039 0.885 C 55.606 45.855 55.34 46.062 55.302 46.356 z" style="stroke: none; stroke-width: 1; stroke-dasharray: none; stroke-linecap: butt; stroke-linejoin: miter; stroke-miterlimit: 10; fill: rgb(0,0,136); fill-rule: nonzero; opacity: 1;" transform=" matrix(1 0 0 1 0 0) " stroke-linecap="round" />
</g>
</svg>