<svg xmlns="http://www.w3.org/2000/svg" xmlns:xlink="http://www.w3.org/1999/xlink" version="1.1" width="256" height="256" viewBox="0 0 256 256" xml:space="preserve">

<defs>
</defs>
<g style="stroke: none; stroke-width: 0; stroke-dasharray: none; stroke-linecap: butt; stroke-linejoin: miter; stroke-miterlimit: 10; fill: none; fill-rule: nonzero; opacity: 1;" transform="translate(1.4065934065934016 1.4065934065934016) scale(2.81 2.81)" >
	<path d="M 44.301 49.482 H 15.588 c -0.552 0 -1 -0.447 -1 -1 s 0.448 -1 1 -1 h 28.713 c 0.552 0 1 0.447 1 1 S 44.853 49.482 44.301 49.482 z" style="stroke: none; stroke-width: 1; stroke-dasharray: none; stroke-linecap: butt; stroke-linejoin: miter; stroke-miterlimit: 10; fill: rgb(7,42,56); fill-rule: nonzero; opacity: 1;" transform=" matrix(1 0 0 1 0 0) " stroke-linecap="round" />
	<path d="M 53.915 89 c 1.71 0 3.097 -1.386 3.097 -3.097 V 69.811 c 0 1.71 -1.386 3.097 -3.097 3.097 H 46.6 H 11.732 c -4.444 0 -8.046 3.602 -8.046 8.046 v 0 c 0 4.444 3.602 8.046 8.046 8.046 H 53.915" style="stroke: none; stroke-width: 1; stroke-dasharray: none; stroke-linecap: butt; stroke-linejoin: miter; stroke-miterlimit: 10; fill: rgb(238,240,245); fill-rule: nonzero; opacity: 1;" transform=" matrix(1 0 0 1 0 0) " stroke-linecap="round" />
	<path d="M 46.15 72.458 H 11.282 c -4.444 0 -8.046 3.602 -8.046 8.046 v 0 c 0 0 0 -57.197 0 -57.197 c 0 -4.509 3.656 -8.165 8.165 -8.165 h 42.064 c 1.71 0 3.097 1.386 3.097 3.097 v 51.123 c 0 1.71 -1.386 3.097 -3.097 3.097 H 46.15" style="stroke: none; stroke-width: 1; stroke-dasharray: none; stroke-linecap: butt; stroke-linejoin: miter; stroke-miterlimit: 10; fill: rgb(249,208,112); fill-rule: nonzero; opacity: 1;" transform=" matrix(1 0 0 1 0 0) " stroke-linecap="round" />
	<path d="M 39.179 33.212 l 6.651 -2.147 c 0.455 -0.15 0.455 -0.794 0 -0.944 l -13.338 -4.382 c -0.947 -0.311 -1.969 -0.311 -2.915 0 l -13.338 4.382 c -0.455 0.15 -0.455 0.794 0 0.944 l 6.898 2.147 l -0.994 6.808 h 18.031 L 39.179 33.212" style="stroke: none; stroke-width: 1; stroke-dasharray: none; stroke-linecap: butt; stroke-linejoin: miter; stroke-miterlimit: 10; fill: rgb(63,110,144); fill-rule: nonzero; opacity: 1;" transform=" matrix(1 0 0 1 0 0) " stroke-linecap="round" />
	<path d="M 44.301 55.104 H 15.477 c -0.552 0 -1 -0.447 -1 -1 s 0.448 -1 1 -1 h 28.824 c 0.552 0 1 0.447 1 1 S 44.853 55.104 44.301 55.104 z" style="stroke: none; stroke-width: 1; stroke-dasharray: none; stroke-linecap: butt; stroke-linejoin: miter; stroke-miterlimit: 10; fill: rgb(7,42,56); fill-rule: nonzero; opacity: 1;" transform=" matrix(1 0 0 1 0 0) " stroke-linecap="round" />
	<path d="M 36.84 60.726 H 23.117 c -0.552 0 -1 -0.447 -1 -1 s 0.448 -1 1 -1 H 36.84 c 0.552 0 1 0.447 1 1 S 37.392 60.726 36.84 60.726 z" style="stroke: none; stroke-width: 1; stroke-dasharray: none; stroke-linecap: butt; stroke-linejoin: miter; stroke-miterlimit: 10; fill: rgb(7,42,56); fill-rule: nonzero; opacity: 1;" transform=" matrix(1 0 0 1 0 0) " stroke-linecap="round" />
	<path d="M 46.142 29.172 l -13.338 -4.383 c -1.157 -0.38 -2.381 -0.38 -3.54 0 l -13.338 4.383 c -0.615 0.202 -1.029 0.773 -1.029 1.421 c 0 0.406 0.176 0.771 0.453 1.046 v 7.919 c 0 0.552 0.448 1 1 1 s 1 -0.448 1 -1 v -7.099 l 4.674 1.454 l -0.871 5.962 c -0.042 0.288 0.043 0.579 0.233 0.798 s 0.466 0.346 0.756 0.346 h 18.031 c 0 0 0.001 0 0.001 0 c 0.048 0 0.096 -0.003 0.144 -0.011 c 0.043 -0.006 0.077 -0.031 0.118 -0.042 c 0.066 -0.018 0.129 -0.037 0.189 -0.068 c 0.057 -0.029 0.106 -0.066 0.156 -0.105 c 0.051 -0.04 0.098 -0.079 0.141 -0.128 c 0.042 -0.049 0.074 -0.101 0.106 -0.157 c 0.032 -0.055 0.061 -0.109 0.082 -0.17 c 0.022 -0.064 0.031 -0.129 0.04 -0.197 c 0.005 -0.042 0.025 -0.08 0.025 -0.123 c 0 -0.025 -0.012 -0.046 -0.014 -0.071 c -0.002 -0.025 0.008 -0.048 0.004 -0.074 l -0.872 -5.972 l 5.852 -1.889 c 0.615 -0.203 1.029 -0.774 1.028 -1.422 C 47.171 29.945 46.757 29.374 46.142 29.172 z M 39.19 32.158 c -0.448 -0.166 -0.895 -0.329 -1.343 -0.468 c -0.526 -0.164 -1.087 0.132 -1.25 0.661 c -0.163 0.528 0.133 1.087 0.661 1.25 c 0.34 0.105 0.68 0.233 1.02 0.355 l 0.739 5.064 H 23.299 l 0.741 -5.073 c 2.786 -1.015 5.338 -1.437 7.968 -1.305 c 0.557 0.032 1.021 -0.396 1.048 -0.949 c 0.028 -0.552 -0.397 -1.021 -0.949 -1.048 c -2.945 -0.148 -5.891 0.354 -8.994 1.512 l -5.067 -1.577 l 11.842 -3.891 c 0.749 -0.247 1.542 -0.247 2.292 0 l 11.869 3.9 L 39.19 32.158 z" style="stroke: none; stroke-width: 1; stroke-dasharray: none; stroke-linecap: butt; stroke-linejoin: miter; stroke-miterlimit: 10; fill: rgb(7,42,56); fill-rule: nonzero; opacity: 1;" transform=" matrix(1 0 0 1 0 0) " stroke-linecap="round" />
	<path d="M 77.558 74.425 L 77.558 74.425 c -4.836 0 -8.756 -3.92 -8.756 -8.756 v -8.431 c 0 -4.836 3.92 -8.756 8.756 -8.756 h 0 c 4.836 0 8.756 3.92 8.756 8.756 v 8.431 C 86.314 70.505 82.394 74.425 77.558 74.425 z" style="stroke: none; stroke-width: 1; stroke-dasharray: none; stroke-linecap: butt; stroke-linejoin: miter; stroke-miterlimit: 10; fill: rgb(238,240,245); fill-rule: nonzero; opacity: 1;" transform=" matrix(1 0 0 1 0 0) " stroke-linecap="round" />
	<path d="M 56.012 77.857 c 0 1.156 -0.94 2.097 -2.097 2.097 H 11.732 c -0.552 0 -1 0.447 -1 1 s 0.448 1 1 1 h 42.183 c 2.259 0 4.097 -1.838 4.097 -4.097 c 0 -0.553 -0.447 -1 -1 -1 S 56.012 77.305 56.012 77.857 z" style="stroke: none; stroke-width: 1; stroke-dasharray: none; stroke-linecap: butt; stroke-linejoin: miter; stroke-miterlimit: 10; fill: rgb(7,42,56); fill-rule: nonzero; opacity: 1;" transform=" matrix(1 0 0 1 0 0) " stroke-linecap="round" />
	<path d="M 78.558 47.534 V 7.475 C 78.558 3.353 75.204 0 71.083 0 H 37.508 c -4.121 0 -7.474 3.353 -7.474 7.475 v 7.117 H 11.851 c -5.054 0 -9.165 4.111 -9.165 9.165 v 57.198 c 0 4.988 4.058 9.046 9.046 9.046 h 42.183 c 2.259 0 4.097 -1.838 4.097 -4.097 c 0 -0.553 -0.447 -1 -1 -1 s -1 0.447 -1 1 c 0 1.156 -0.94 2.097 -2.097 2.097 H 11.732 c -3.885 0 -7.046 -3.161 -7.046 -7.046 c 0 -3.886 3.161 -7.047 7.046 -7.047 h 34.868 h 7.314 c 2.259 0 4.097 -1.838 4.097 -4.097 V 18.688 c 0 -2.259 -1.838 -4.097 -4.097 -4.097 H 32.034 V 7.475 C 32.034 4.456 34.49 2 37.508 2 h 33.575 c 3.019 0 5.475 2.456 5.475 5.475 v 40.059 c -4.912 0.502 -8.756 4.662 -8.756 9.705 v 8.432 c 0 5.38 4.376 9.756 9.756 9.756 s 9.756 -4.376 9.756 -9.756 v -8.432 C 87.313 52.196 83.469 48.036 78.558 47.534 z M 56.012 18.688 v 51.123 c 0 1.156 -0.94 2.097 -2.097 2.097 h -7.314 H 11.732 c -2.847 0 -5.387 1.325 -7.046 3.387 V 23.756 c 0 -3.951 3.214 -7.165 7.165 -7.165 h 42.064 C 55.071 16.591 56.012 17.532 56.012 18.688 z M 85.313 57.238 v 0.227 h -6.756 v -7.91 C 82.362 50.048 85.313 53.302 85.313 57.238 z M 76.558 49.554 v 7.91 h -6.756 v -0.227 C 69.802 53.302 72.753 50.048 76.558 49.554 z M 77.558 73.426 c -4.276 0 -7.756 -3.479 -7.756 -7.756 v -6.205 h 15.512 v 6.205 C 85.313 69.946 81.834 73.426 77.558 73.426 z" style="stroke: none; stroke-width: 1; stroke-dasharray: none; stroke-linecap: butt; stroke-linejoin: miter; stroke-miterlimit: 10; fill: rgb(7,42,56); fill-rule: nonzero; opacity: 1;" transform=" matrix(1 0 0 1 0 0) " stroke-linecap="round" />
</g>
</svg>