<svg xmlns="http://www.w3.org/2000/svg" xmlns:xlink="http://www.w3.org/1999/xlink" version="1.1" width="256" height="256" viewBox="0 0 256 256" xml:space="preserve">

<defs>
</defs>
<g style="stroke: none; stroke-width: 0; stroke-dasharray: none; stroke-linecap: butt; stroke-linejoin: miter; stroke-miterlimit: 10; fill: none; fill-rule: nonzero; opacity: 1;" transform="translate(1.4065934065934016 1.4065934065934016) scale(2.81 2.81)" >
	<path d="M 44.913 26.682 H 15.231 c -8.28 0 -15.002 -3.611 -15.211 -11.841 C 0.016 14.972 0 15.099 0 15.231 v 31.303 c 8.265 10.233 20.908 16.784 35.087 16.784 h 0.682 c 8.28 0 12.002 3.611 12.211 11.841 c 0.003 -0.131 0.02 -0.258 0.02 -0.39 C 48 83.181 44.181 90 35.769 90 h 39 C 83.181 90 90 83.181 90 74.769 C 90 42.732 69.814 26.682 44.913 26.682 z" style="stroke: none; stroke-width: 1; stroke-dasharray: none; stroke-linecap: butt; stroke-linejoin: miter; stroke-miterlimit: 10; fill: rgb(0,158,225); fill-rule: nonzero; opacity: 1;" transform=" matrix(1 0 0 1 0 0) " stroke-linecap="round" />
	<path d="M 90 74.769 L 90 74.769 c 0 -24.901 -20.186 -45.087 -45.087 -45.087 H 15.231 c -8.28 0 -15.002 -6.611 -15.211 -14.841 C 0.016 14.972 0 15.099 0 15.231 C 0 6.819 6.819 0 15.231 0 h 59.538 C 83.181 0 90 6.819 90 15.231 V 74.769" style="stroke: none; stroke-width: 1; stroke-dasharray: none; stroke-linecap: butt; stroke-linejoin: miter; stroke-miterlimit: 10; fill: rgb(0,170,242); fill-rule: nonzero; opacity: 1;" transform=" matrix(1 0 0 1 0 0) " stroke-linecap="round" />
	<path d="M 0 74.769 V 43.534 c 8.265 10.233 20.908 16.784 35.087 16.784 h 0.682 c 8.28 0 15.002 6.611 15.211 14.841 c 0.003 -0.131 0.02 -0.258 0.02 -0.39 C 51 83.181 44.181 90 35.769 90 H 15.231 C 6.819 90 0 83.181 0 74.769 z" style="stroke: none; stroke-width: 1; stroke-dasharray: none; stroke-linecap: butt; stroke-linejoin: miter; stroke-miterlimit: 10; fill: rgb(0,147,209); fill-rule: nonzero; opacity: 1;" transform=" matrix(1 0 0 1 0 0) " stroke-linecap="round" />
	<path d="M 71.328 49.367 c -0.909 -1.256 -1.33 -2.79 -1.328 -4.34 c 0 -0.009 0 -0.018 0 -0.027 c 0 -13.807 -11.192 -25 -25 -25 c -3.02 0 -5.915 0.538 -8.595 1.52 c -1.45 0.531 -3.038 0.634 -4.525 0.215 c -1.313 -0.37 -2.716 -0.526 -4.168 -0.426 c -6.104 0.42 -11.017 5.422 -11.334 11.532 c -0.151 2.916 0.724 5.621 2.294 7.791 c 0.909 1.256 1.33 2.79 1.328 4.34 c 0 0.009 0 0.018 0 0.027 c 0 13.807 11.193 25 25 25 c 3.02 0 5.915 -0.538 8.595 -1.52 c 1.45 -0.531 3.038 -0.634 4.525 -0.215 c 1.313 0.37 2.716 0.526 4.168 0.426 c 6.104 -0.42 11.017 -5.422 11.334 -11.532 C 73.772 54.243 72.898 51.537 71.328 49.367 z M 45.915 40.518 c 5.041 1.199 12.658 3.01 12.658 11.401 c 0 4.133 -2.036 7.287 -5.732 8.878 c -2.638 1.136 -5.623 1.289 -8.196 1.289 c -7.905 0 -12.898 -6.147 -13.107 -6.409 c -1.294 -1.623 -1.028 -3.99 0.596 -5.284 c 1.623 -1.295 3.99 -1.028 5.284 0.595 c 0.011 0.014 2.997 3.443 7.227 3.577 c 5.093 0.162 6.256 -1.354 6.407 -2.647 c 0.184 -1.58 -1.221 -2.74 -6.878 -4.084 c -4.795 -1.14 -12.041 -2.863 -12.041 -10.591 c 0 -2.406 0.979 -10.258 13.573 -10.258 c 7.952 0 12.647 6.262 12.843 6.528 c 1.23 1.673 0.871 4.027 -0.803 5.257 c -1.666 1.224 -4.005 0.874 -5.239 -0.779 c -0.088 -0.114 -2.775 -3.103 -6.801 -3.486 c -3.046 -0.29 -6.053 0.809 -6.053 2.432 C 39.654 38.656 40.518 39.234 45.915 40.518 z" style="stroke: none; stroke-width: 1; stroke-dasharray: none; stroke-linecap: butt; stroke-linejoin: miter; stroke-miterlimit: 10; fill: rgb(255,255,255); fill-rule: nonzero; opacity: 1;" transform=" matrix(1 0 0 1 0 0) " stroke-linecap="round" />
</g>
</svg>