<svg xmlns="http://www.w3.org/2000/svg" xmlns:xlink="http://www.w3.org/1999/xlink" version="1.1" width="256" height="256" viewBox="0 0 256 256" xml:space="preserve">

<defs>
</defs>
<g style="stroke: none; stroke-width: 0; stroke-dasharray: none; stroke-linecap: butt; stroke-linejoin: miter; stroke-miterlimit: 10; fill: none; fill-rule: nonzero; opacity: 1;" transform="translate(1.4065934065934016 1.4065934065934016) scale(2.81 2.81)" >
	<linearGradient id="SVGID_1" gradientUnits="userSpaceOnUse" x1="61.5398" y1="83.5708" x2="33.3256" y2="17.7752">
<stop offset="0%" style="stop-color:rgb(55,174,226);stop-opacity: 1"/>
<stop offset="100%" style="stop-color:rgb(30,150,200);stop-opacity: 1"/>
</linearGradient>
<path d="M 81.532 90 H 8.468 C 3.791 90 0 86.209 0 81.532 V 8.468 C 0 3.791 3.791 0 8.468 0 h 73.063 C 86.209 0 90 3.791 90 8.468 v 73.063 C 90 86.209 86.209 90 81.532 90 z" style="stroke: none; stroke-width: 1; stroke-dasharray: none; stroke-linecap: butt; stroke-linejoin: miter; stroke-miterlimit: 10; fill: url(#SVGID_1); fill-rule: nonzero; opacity: 1;" transform=" matrix(1 0 0 1 0 0) " stroke-linecap="round" />
	<path d="M 36.75 65.625 c -1.458 0 -1.21 -0.55 -1.713 -1.939 L 30.75 49.578 L 63.75 30" style="stroke: none; stroke-width: 1; stroke-dasharray: none; stroke-linecap: butt; stroke-linejoin: miter; stroke-miterlimit: 10; fill: rgb(200,218,234); fill-rule: nonzero; opacity: 1;" transform=" matrix(1 0 0 1 0 0) " stroke-linecap="round" />
	<path d="M 36.75 65.625 c 1.125 0 1.622 -0.514 2.25 -1.125 l 6 -5.834 l -7.484 -4.513" style="stroke: none; stroke-width: 1; stroke-dasharray: none; stroke-linecap: butt; stroke-linejoin: miter; stroke-miterlimit: 10; fill: rgb(169,201,221); fill-rule: nonzero; opacity: 1;" transform=" matrix(1 0 0 1 0 0) " stroke-linecap="round" />
	<path d="M 37.515 54.154 L 55.65 67.552 c 2.07 1.142 3.563 0.551 4.079 -1.921 l 7.382 -34.786 c 0.756 -3.03 -1.155 -4.405 -3.135 -3.506 L 20.629 44.053 c -2.959 1.187 -2.941 2.838 -0.539 3.573 l 11.124 3.472 l 25.752 -16.247 c 1.216 -0.737 2.332 -0.341 1.416 0.472 L 37.515 54.154 z" style="stroke: none; stroke-width: 1; stroke-dasharray: none; stroke-linecap: butt; stroke-linejoin: miter; stroke-miterlimit: 10; fill: rgb(252,253,255); fill-rule: nonzero; opacity: 1;" transform=" matrix(1 0 0 1 0 0) " stroke-linecap="round" />
</g>
</svg>