<svg xmlns="http://www.w3.org/2000/svg" xmlns:xlink="http://www.w3.org/1999/xlink" version="1.1" width="256" height="256" viewBox="0 0 256 256" xml:space="preserve">

<defs>
</defs>
<g style="stroke: none; stroke-width: 0; stroke-dasharray: none; stroke-linecap: butt; stroke-linejoin: miter; stroke-miterlimit: 10; fill: none; fill-rule: nonzero; opacity: 1;" transform="translate(1.4065934065934016 1.4065934065934016) scale(2.81 2.81)" >
	<path d="M 19.917 42.174 L 19.917 42.174 c -5.754 0 -10.461 -4.707 -10.461 -10.461 v -3.752 c 0 -5.754 4.707 -10.461 10.461 -10.461 h 0 c 5.754 0 10.461 4.707 10.461 10.461 v 3.752 C 30.378 37.466 25.67 42.174 19.917 42.174 z" style="stroke: none; stroke-width: 1; stroke-dasharray: none; stroke-linecap: butt; stroke-linejoin: miter; stroke-miterlimit: 10; fill: rgb(110,177,225); fill-rule: nonzero; opacity: 1;" transform=" matrix(1 0 0 1 0 0) " stroke-linecap="round" />
	<path d="M 70.083 42.174 L 70.083 42.174 c -5.754 0 -10.461 -4.707 -10.461 -10.461 v -3.752 c 0 -5.754 4.707 -10.461 10.461 -10.461 h 0 c 5.754 0 10.461 4.707 10.461 10.461 v 3.752 C 80.544 37.466 75.837 42.174 70.083 42.174 z" style="stroke: none; stroke-width: 1; stroke-dasharray: none; stroke-linecap: butt; stroke-linejoin: miter; stroke-miterlimit: 10; fill: rgb(100,107,121); fill-rule: nonzero; opacity: 1;" transform=" matrix(1 0 0 1 0 0) " stroke-linecap="round" />
	<path d="M 62.603 64.054 l -2.618 -2.618 c -0.026 -0.026 -0.059 -0.038 -0.088 -0.058 l -4.705 -4.705 c -0.237 -0.237 -0.621 -0.237 -0.858 0 l -2.618 2.618 c -0.237 0.237 -0.237 0.621 0 0.858 l 1.892 1.892 H 38.566 c -0.436 0 -0.789 0.353 -0.789 0.789 v 3.337 c 0 0.436 0.353 0.789 0.789 0.789 h 15.042 l -1.892 1.892 c -0.237 0.237 -0.237 0.621 0 0.858 l 2.618 2.618 c 0.237 0.237 0.621 0.237 0.858 0 l 4.705 -4.705 c 0.029 -0.02 0.062 -0.032 0.088 -0.058 l 2.618 -2.618 c 0.122 -0.122 0.179 -0.283 0.175 -0.444 C 62.781 64.337 62.725 64.176 62.603 64.054 z" style="stroke: none; stroke-width: 1; stroke-dasharray: none; stroke-linecap: butt; stroke-linejoin: miter; stroke-miterlimit: 10; fill: rgb(240,88,47); fill-rule: nonzero; opacity: 1;" transform=" matrix(1 0 0 1 0 0) " stroke-linecap="round" />
	<path d="M 29.953 51.054 l 2.618 -2.618 c 0.026 -0.026 0.059 -0.038 0.088 -0.058 l 4.705 -4.705 c 0.237 -0.237 0.621 -0.237 0.858 0 l 2.618 2.618 c 0.237 0.237 0.237 0.621 0 0.858 l -1.892 1.892 h 15.042 c 0.436 0 0.789 0.353 0.789 0.789 v 3.337 c 0 0.436 -0.353 0.789 -0.789 0.789 H 38.947 l 1.892 1.892 c 0.237 0.237 0.237 0.621 0 0.858 l -2.618 2.618 c -0.237 0.237 -0.621 0.237 -0.858 0 l -4.705 -4.705 c -0.029 -0.02 -0.062 -0.032 -0.088 -0.058 l -2.618 -2.618 c -0.122 -0.122 -0.179 -0.283 -0.175 -0.444 C 29.774 51.337 29.83 51.176 29.953 51.054 z" style="stroke: none; stroke-width: 1; stroke-dasharray: none; stroke-linecap: butt; stroke-linejoin: miter; stroke-miterlimit: 10; fill: rgb(113,212,86); fill-rule: nonzero; opacity: 1;" transform=" matrix(1 0 0 1 0 0) " stroke-linecap="round" />
	<path d="M 33.278 66.166 v -3.337 c 0 -0.38 0.044 -0.75 0.121 -1.107 l -3.684 -3.684 c -0.124 -0.103 -0.243 -0.211 -0.356 -0.327 l -2.588 -2.587 c -0.956 -0.956 -1.496 -2.271 -1.493 -3.624 c -0.004 -1.354 0.536 -2.672 1.493 -3.628 l 0 -0.001 l 3.101 -3.089 c -1.281 -0.556 -2.641 -0.959 -4.065 -1.172 c -1.77 0.916 -3.77 1.444 -5.891 1.444 s -4.121 -0.527 -5.89 -1.444 C 6.117 44.791 0 51.654 0 59.878 v 10.821 C 0 71.69 0.81 72.5 1.801 72.5 h 36.232 c 0.72 0 1.34 -0.431 1.628 -1.045 h -1.094 C 35.65 71.455 33.278 69.082 33.278 66.166 z" style="stroke: none; stroke-width: 1; stroke-dasharray: none; stroke-linecap: butt; stroke-linejoin: miter; stroke-miterlimit: 10; fill: rgb(110,177,225); fill-rule: nonzero; opacity: 1;" transform=" matrix(1 0 0 1 0 0) " stroke-linecap="round" />
	<path d="M 75.974 43.611 c -1.77 0.916 -3.77 1.444 -5.89 1.444 s -4.121 -0.527 -5.891 -1.444 c -2.361 0.352 -4.557 1.217 -6.481 2.468 c 0.966 0.959 1.565 2.285 1.565 3.75 v 3.337 c 0 0.38 -0.044 0.75 -0.121 1.107 l 3.685 3.685 c 0.112 0.094 0.221 0.192 0.325 0.297 l 2.617 2.617 c 0.956 0.955 1.497 2.271 1.493 3.625 c 0.004 1.354 -0.537 2.67 -1.493 3.626 L 61.39 72.5 h 26.81 c 0.99 0 1.801 -0.81 1.801 -1.801 V 59.878 C 90 51.654 83.883 44.791 75.974 43.611 z" style="stroke: none; stroke-width: 1; stroke-dasharray: none; stroke-linecap: butt; stroke-linejoin: miter; stroke-miterlimit: 10; fill: rgb(100,107,121); fill-rule: nonzero; opacity: 1;" transform=" matrix(1 0 0 1 0 0) " stroke-linecap="round" />
</g>
</svg>